<svg width="71px" viewBox="0 0 71 140" xmlns="http://www.w3.org/2000/svg" fill-rule="evenodd" clip-rule="evenodd" stroke-linecap="round" stroke-linejoin="round" stroke-miterlimit="1.5"><path fill="none" d="M.009 0h70v140h-70z"/><path d="M62.284 130.659s-1.317-4.88-1.544-9.067c-.228-4.186 2.215-25.191 2.215-29.13S61.48 57.998 61.48 57.998l-3.829-43.57S56.422 2.346 47.313 3.029c-9.109.682-8.204 11.775-8.276 15.539-.072 3.764 1.072 45.785 1.072 45.785s-8.435.074-10.686 4.333c0 0-11.472-1.349-14.048 6.835 0 0-3.778 3.148-5.956 4.219-2.178 1.07-6.679 7.552-4.534 22.495 2.145 14.944.374 28.011-.145 30.152 0 0 33.27 2.517 57.544-1.728z" fill="#ffeb98"/><g fill="none" stroke="#010025"><path d="M58.61 128.004s-.524-18.989 2.105-35.529c0 0-4.462-68.385-4.958-76.168-.816-12.822-14.573-12.934-14.443.587.13 13.521 1.414 51.711 1.414 51.711s-8.947-4.327-12.754 4.019c0 0-11.874-5.499-12.814 7.394 0 0-7.963-2.997-9.93 8.942-1.967 11.939.379 11.592 1.319 19.225.94 7.633 1.457 17.224.218 20.876"/><path d="M60.216 95.496s-2.332-15.797-21.028-11.844l-10.512-2.341s-8.069 11.662 3.366 15.215c11.435 3.553 17.382-.078 17.382-.078M50.131 104.421s-7.377-.137-7.218-6.161M48.171 83.248l-5.514-15.211M33.432 82.201l-3.445-9.617M9.372 89.716s3.136 15.752 9.18 15.83c6.044.077 8.073-4.376 8.073-4.376l-9.553-21.262M26.927 100.907s5.653 3.941 10.478-3.061"/><path d="M17.568 105.156s-5.195-7.349.155-10.053c5.349-2.704 7.874 7.149 7.874 7.149M28.23 101.428s-1.616-2.609-1.175-8.142M26.044 88.188l11.012 1.92 2.18-6.521M58.17 79.712s-.566-2.268-3.978-1.691c-3.412.577-7.113 1.511-7.113 1.511M34.74 79.34s5.377-2.662 8.113-2.886M48.336 83.297s.161 1.746-1.217 3.092M52.261 84.991s.353 2.051-1.026 3.397M50.506 84.01s-.819 4.683-3.678 5.872M10.444 93.973s-1.354 1.44-2.352.423M10.823 95.185s.023 3.217-1.825 3.343M12.543 92.229s3.267-3.241 5.915-3.538M13.639 93.57s3.529-2.62 5.689-2.95M35.325 82.078s5.767-2.913 9.042-2.913M22.343 85.118s5.063-2.582 5.79-2.921M23.052 87.144l3.777-1.841"/></g><text x="-56.942" y="254.435" font-family="'Branding-SemiBold','Branding'" font-weight="600" font-size="13.916" fill="#010025" transform="rotate(-93.322 -88.026 109.62)">dnsimple</text><g><text x="8.19" y="140.486" font-family="'RobotoCondensed-Bold','Roboto Condensed'" font-weight="700" font-size="13.09" fill="#010025" transform="rotate(-3.779 -277.3 12.588)">M<tspan x="20.273px 29.334px 38.522px" y="140.486px 140.486px 140.486px">EET</tspan></text></g></svg>
